<mxfile host="app.diagrams.net" agent="Mozilla/5.0 (Windows NT 10.0; Win64; x64) AppleWebKit/537.36 (KHTML, like Gecko) Chrome/126.0.0.0 Whale/3.27.254.15 Safari/537.36" version="24.7.7">
  <diagram name="페이지-1" id="KCfzDf8pTsPUJtwc3lcl">
    <mxGraphModel dx="2951" dy="3387" grid="1" gridSize="10" guides="1" tooltips="1" connect="1" arrows="1" fold="1" page="1" pageScale="1" pageWidth="827" pageHeight="1169" math="0" shadow="0">
      <root>
        <mxCell id="0" />
        <mxCell id="1" parent="0" />
        <mxCell id="t9LcC6FPBCo6lW4B1yM4-5" value="&lt;p style=&quot;margin: 0px; margin-top: 4px; text-align: center; text-decoration: underline;&quot;&gt;&lt;strong&gt;&lt;font style=&quot;font-size: 16px;&quot;&gt;Main&lt;/font&gt;&lt;/strong&gt;&lt;/p&gt;&lt;hr&gt;&lt;p style=&quot;margin: 0px 0px 0px 8px; font-size: 14px;&quot;&gt;* Launcher&lt;/p&gt;&lt;p style=&quot;margin: 0px; margin-left: 8px;&quot;&gt;&lt;br&gt;&lt;/p&gt;" style="verticalAlign=top;align=left;overflow=fill;fontSize=12;fontFamily=d2coding;html=1;strokeColor=#000000;shadow=1;fillColor=none;fontColor=#000000;rounded=1;sketch=1;curveFitting=1;jiggle=2;" vertex="1" parent="1">
          <mxGeometry x="-650" y="-30" width="160" height="170" as="geometry" />
        </mxCell>
        <mxCell id="t9LcC6FPBCo6lW4B1yM4-97" style="edgeStyle=orthogonalEdgeStyle;rounded=0;sketch=1;hachureGap=4;jiggle=2;curveFitting=1;orthogonalLoop=1;jettySize=auto;html=1;entryX=1;entryY=0.5;entryDx=0;entryDy=0;fontFamily=d2coding;fontSource=https%3A%2F%2Ffonts.googleapis.com%2Fcss%3Ffamily%3DArchitects%2BDaughter;fontSize=12;fontColor=default;labelBackgroundColor=default;endArrow=open;endFill=0;strokeWidth=2;endSize=16;" edge="1" parent="1" source="t9LcC6FPBCo6lW4B1yM4-40" target="t9LcC6FPBCo6lW4B1yM4-5">
          <mxGeometry relative="1" as="geometry" />
        </mxCell>
        <mxCell id="t9LcC6FPBCo6lW4B1yM4-40" value="&lt;p style=&quot;margin:0px;margin-top:4px;text-align:center;text-decoration:underline;&quot;&gt;&lt;b&gt;&lt;font style=&quot;font-size: 16px;&quot;&gt;Game&lt;/font&gt;&lt;/b&gt;&lt;/p&gt;&lt;hr style=&quot;border-style:solid;&quot; size=&quot;1&quot;&gt;&lt;p style=&quot;margin: 0px 0px 0px 8px; font-size: 14px;&quot;&gt;&lt;span style=&quot;text-wrap: nowrap;&quot;&gt;isRUnning&lt;/span&gt;&lt;/p&gt;&lt;p style=&quot;margin: 0px 0px 0px 8px; font-size: 14px;&quot;&gt;&lt;span style=&quot;text-wrap: nowrap; background-color: initial;&quot;&gt;scenes&lt;/span&gt;&lt;/p&gt;&lt;p style=&quot;margin: 0px 0px 0px 8px; font-size: 14px;&quot;&gt;&lt;span style=&quot;text-wrap: nowrap;&quot;&gt;currentScene&lt;/span&gt;&lt;/p&gt;&lt;p style=&quot;margin: 0px 0px 0px 8px; font-size: 14px;&quot;&gt;previousScene&lt;/p&gt;&lt;p style=&quot;margin: 0px 0px 0px 8px; font-size: 14px;&quot;&gt;input&lt;/p&gt;&lt;p style=&quot;margin: 0px 0px 0px 8px; font-size: 14px;&quot;&gt;map&lt;/p&gt;&lt;p style=&quot;margin: 0px 0px 0px 8px; font-size: 14px;&quot;&gt;player&lt;/p&gt;&lt;p style=&quot;margin: 0px 0px 0px 8px; font-size: 14px;&quot;&gt;obstacle&lt;/p&gt;&lt;p style=&quot;margin: 0px 0px 0px 8px; font-size: 14px;&quot;&gt;obsFactory&lt;/p&gt;&lt;p style=&quot;margin: 0px 0px 0px 8px; font-size: 14px;&quot;&gt;printer&lt;/p&gt;&lt;p style=&quot;margin: 0px 0px 0px 8px; font-size: 14px;&quot;&gt;movement&lt;/p&gt;&lt;p style=&quot;margin: 0px 0px 0px 8px; font-size: 14px;&quot;&gt;info&lt;/p&gt;&lt;p style=&quot;margin: 0px 0px 0px 8px; font-size: 14px;&quot;&gt;shape&lt;/p&gt;&lt;p style=&quot;text-wrap: nowrap; margin: 0px 0px 0px 8px; font-size: 14px;&quot;&gt;&lt;br&gt;&lt;/p&gt;&lt;p style=&quot;text-wrap: nowrap; margin: 0px 0px 0px 8px; font-size: 14px;&quot;&gt;Run()&lt;/p&gt;&lt;p style=&quot;text-wrap: nowrap; margin: 0px 0px 0px 8px; font-size: 14px;&quot;&gt;ChangeScene()&lt;/p&gt;&lt;p style=&quot;text-wrap: nowrap; margin: 0px 0px 0px 8px; font-size: 14px;&quot;&gt;ReturnScene()&lt;/p&gt;&lt;p style=&quot;text-wrap: nowrap; margin: 0px 0px 0px 8px; font-size: 14px;&quot;&gt;Reset()&lt;/p&gt;&lt;p style=&quot;text-wrap: nowrap; margin: 0px 0px 0px 8px; font-size: 14px;&quot;&gt;NextStage()&lt;/p&gt;&lt;p style=&quot;text-wrap: nowrap; margin: 0px 0px 0px 8px; font-size: 14px;&quot;&gt;Start()&lt;/p&gt;&lt;p style=&quot;text-wrap: nowrap; margin: 0px 0px 0px 8px; font-size: 14px;&quot;&gt;Update()&lt;/p&gt;&lt;p style=&quot;text-wrap: nowrap; margin: 0px 0px 0px 8px; font-size: 14px;&quot;&gt;Render()&lt;/p&gt;&lt;p style=&quot;text-wrap: nowrap; margin: 0px 0px 0px 8px; font-size: 14px;&quot;&gt;Input()&lt;/p&gt;&lt;p style=&quot;text-wrap: nowrap; margin: 0px 0px 0px 8px; font-size: 14px;&quot;&gt;End()&lt;/p&gt;" style="verticalAlign=top;align=left;overflow=fill;html=1;whiteSpace=wrap;sketch=1;hachureGap=4;jiggle=2;curveFitting=1;fontFamily=d2coding;rounded=1;fillColor=none;strokeColor=#2FE058;strokeWidth=2;shadow=0;" vertex="1" parent="1">
          <mxGeometry x="-83" y="-200" width="160" height="510" as="geometry" />
        </mxCell>
        <mxCell id="t9LcC6FPBCo6lW4B1yM4-37" value="" style="line;strokeWidth=0.5;fillColor=none;align=left;verticalAlign=middle;spacingTop=-1;spacingLeft=3;spacingRight=3;rotatable=0;labelPosition=right;points=[];portConstraint=eastwest;strokeColor=inherit;sketch=1;hachureGap=4;jiggle=2;curveFitting=1;fontFamily=d2coding;" vertex="1" parent="1">
          <mxGeometry x="-83" y="60" width="160" height="8" as="geometry" />
        </mxCell>
        <mxCell id="t9LcC6FPBCo6lW4B1yM4-75" style="edgeStyle=orthogonalEdgeStyle;rounded=0;sketch=1;hachureGap=4;jiggle=2;curveFitting=1;orthogonalLoop=1;jettySize=auto;html=1;exitX=0;exitY=0.5;exitDx=0;exitDy=0;fontFamily=d2coding;fontSource=https%3A%2F%2Ffonts.googleapis.com%2Fcss%3Ffamily%3DArchitects%2BDaughter;fontSize=12;fontColor=default;labelBackgroundColor=default;endArrow=block;endFill=0;endSize=18;" edge="1" parent="1" source="t9LcC6FPBCo6lW4B1yM4-43">
          <mxGeometry relative="1" as="geometry">
            <mxPoint x="77" y="-452.5" as="targetPoint" />
          </mxGeometry>
        </mxCell>
        <mxCell id="t9LcC6FPBCo6lW4B1yM4-43" value="&lt;p style=&quot;margin:0px;margin-top:4px;text-align:center;text-decoration:underline;&quot;&gt;&lt;b&gt;&lt;font style=&quot;font-size: 16px;&quot;&gt;TitleScene&lt;/font&gt;&lt;/b&gt;&lt;/p&gt;&lt;hr style=&quot;border-style:solid;&quot; size=&quot;1&quot;&gt;&lt;p style=&quot;margin: 0px 0px 0px 8px; font-size: 14px;&quot;&gt;&lt;br&gt;&lt;/p&gt;&lt;p style=&quot;text-wrap: nowrap; margin: 0px 0px 0px 8px; font-size: 14px;&quot;&gt;Enter()&lt;/p&gt;&lt;p style=&quot;text-wrap: nowrap; margin: 0px 0px 0px 8px; font-size: 14px;&quot;&gt;&lt;span style=&quot;background-color: initial;&quot;&gt;Update()&lt;/span&gt;&lt;br&gt;&lt;/p&gt;&lt;p style=&quot;text-wrap: nowrap; margin: 0px 0px 0px 8px; font-size: 14px;&quot;&gt;Render()&lt;/p&gt;&lt;p style=&quot;text-wrap: nowrap; margin: 0px 0px 0px 8px; font-size: 14px;&quot;&gt;Input()&lt;/p&gt;&lt;p style=&quot;text-wrap: nowrap; margin: 0px 0px 0px 8px; font-size: 14px;&quot;&gt;Interaction()&lt;/p&gt;&lt;p style=&quot;text-wrap: nowrap; margin: 0px 0px 0px 8px; font-size: 14px;&quot;&gt;End()&lt;/p&gt;" style="verticalAlign=top;align=left;overflow=fill;html=1;whiteSpace=wrap;sketch=1;hachureGap=4;jiggle=2;curveFitting=1;fontFamily=d2coding;rounded=1;fillColor=none;strokeColor=#000000;strokeWidth=2;shadow=0;" vertex="1" parent="1">
          <mxGeometry x="217" y="-547.5" width="160" height="190" as="geometry" />
        </mxCell>
        <mxCell id="t9LcC6FPBCo6lW4B1yM4-47" value="&lt;p style=&quot;margin:0px;margin-top:4px;text-align:center;text-decoration:underline;&quot;&gt;&lt;b&gt;&lt;font style=&quot;font-size: 16px;&quot;&gt;Information&lt;/font&gt;&lt;/b&gt;&lt;/p&gt;&lt;hr style=&quot;border-style:solid;&quot; size=&quot;1&quot;&gt;&lt;p style=&quot;margin: 0px 0px 0px 8px; font-size: 14px;&quot;&gt;&lt;br&gt;&lt;/p&gt;&lt;p style=&quot;text-wrap: nowrap; margin: 0px 0px 0px 8px; font-size: 14px;&quot;&gt;Enter()&lt;/p&gt;&lt;p style=&quot;text-wrap: nowrap; margin: 0px 0px 0px 8px; font-size: 14px;&quot;&gt;PrintInfo()&lt;/p&gt;&lt;p style=&quot;text-wrap: nowrap; margin: 0px 0px 0px 8px; font-size: 14px;&quot;&gt;infoOut()&lt;/p&gt;&lt;p style=&quot;text-wrap: nowrap; margin: 0px 0px 0px 8px; font-size: 14px;&quot;&gt;&lt;span style=&quot;background-color: initial;&quot;&gt;Update()&lt;/span&gt;&lt;br&gt;&lt;/p&gt;&lt;p style=&quot;text-wrap: nowrap; margin: 0px 0px 0px 8px; font-size: 14px;&quot;&gt;Render()&lt;/p&gt;&lt;p style=&quot;text-wrap: nowrap; margin: 0px 0px 0px 8px; font-size: 14px;&quot;&gt;Input()&lt;/p&gt;&lt;p style=&quot;text-wrap: nowrap; margin: 0px 0px 0px 8px; font-size: 14px;&quot;&gt;Interaction()&lt;/p&gt;&lt;p style=&quot;text-wrap: nowrap; margin: 0px 0px 0px 8px; font-size: 14px;&quot;&gt;Exit()&lt;/p&gt;" style="verticalAlign=top;align=left;overflow=fill;html=1;whiteSpace=wrap;sketch=1;hachureGap=4;jiggle=2;curveFitting=1;fontFamily=d2coding;rounded=1;fillColor=none;strokeColor=#000000;strokeWidth=2;shadow=0;" vertex="1" parent="1">
          <mxGeometry x="-403" y="-560" width="160" height="215" as="geometry" />
        </mxCell>
        <mxCell id="t9LcC6FPBCo6lW4B1yM4-77" style="edgeStyle=orthogonalEdgeStyle;rounded=0;sketch=1;hachureGap=4;jiggle=2;curveFitting=1;orthogonalLoop=1;jettySize=auto;html=1;exitX=0.5;exitY=1;exitDx=0;exitDy=0;entryX=0.006;entryY=0.087;entryDx=0;entryDy=0;fontFamily=d2coding;fontSource=https%3A%2F%2Ffonts.googleapis.com%2Fcss%3Ffamily%3DArchitects%2BDaughter;fontSize=12;fontColor=default;labelBackgroundColor=default;entryPerimeter=0;endArrow=block;endFill=0;endSize=18;" edge="1" parent="1" source="t9LcC6FPBCo6lW4B1yM4-48" target="t9LcC6FPBCo6lW4B1yM4-50">
          <mxGeometry relative="1" as="geometry">
            <Array as="points">
              <mxPoint x="-370" y="-600" />
              <mxPoint x="-193" y="-600" />
              <mxPoint x="-193" y="-540" />
            </Array>
          </mxGeometry>
        </mxCell>
        <mxCell id="t9LcC6FPBCo6lW4B1yM4-48" value="&lt;p style=&quot;margin:0px;margin-top:4px;text-align:center;text-decoration:underline;&quot;&gt;&lt;b&gt;&lt;font style=&quot;font-size: 16px;&quot;&gt;Stage1&lt;/font&gt;&lt;/b&gt;&lt;/p&gt;&lt;hr style=&quot;border-style:solid;&quot; size=&quot;1&quot;&gt;&lt;p style=&quot;margin: 0px 0px 0px 8px; font-size: 14px;&quot;&gt;playerPos&lt;/p&gt;&lt;p style=&quot;margin: 0px 0px 0px 8px; font-size: 14px;&quot;&gt;input&lt;/p&gt;&lt;p style=&quot;margin: 0px 0px 0px 8px; font-size: 14px;&quot;&gt;&lt;span style=&quot;text-wrap: nowrap; background-color: initial;&quot;&gt;&lt;br&gt;&lt;/span&gt;&lt;/p&gt;&lt;p style=&quot;margin: 0px 0px 0px 8px; font-size: 14px;&quot;&gt;&lt;span style=&quot;text-wrap: nowrap; background-color: initial;&quot;&gt;printInfo()&lt;/span&gt;&lt;br&gt;&lt;/p&gt;&lt;p style=&quot;text-wrap: nowrap; margin: 0px 0px 0px 8px; font-size: 14px;&quot;&gt;Enter()&lt;/p&gt;&lt;p style=&quot;text-wrap: nowrap; margin: 0px 0px 0px 8px; font-size: 14px;&quot;&gt;&lt;span style=&quot;background-color: initial;&quot;&gt;Update()&lt;/span&gt;&lt;br&gt;&lt;/p&gt;&lt;p style=&quot;text-wrap: nowrap; margin: 0px 0px 0px 8px; font-size: 14px;&quot;&gt;Render()&lt;/p&gt;&lt;p style=&quot;text-wrap: nowrap; margin: 0px 0px 0px 8px; font-size: 14px;&quot;&gt;Input()&lt;/p&gt;&lt;p style=&quot;text-wrap: nowrap; margin: 0px 0px 0px 8px; font-size: 14px;&quot;&gt;Interaction()&lt;/p&gt;&lt;p style=&quot;text-wrap: nowrap; margin: 0px 0px 0px 8px; font-size: 14px;&quot;&gt;Exit()&lt;/p&gt;" style="verticalAlign=top;align=left;overflow=fill;html=1;whiteSpace=wrap;sketch=1;hachureGap=4;jiggle=2;curveFitting=1;fontFamily=d2coding;rounded=1;fillColor=none;strokeColor=#000000;strokeWidth=2;shadow=0;" vertex="1" parent="1">
          <mxGeometry x="-450" y="-920" width="160" height="240" as="geometry" />
        </mxCell>
        <mxCell id="t9LcC6FPBCo6lW4B1yM4-49" value="" style="line;strokeWidth=0.5;fillColor=none;align=left;verticalAlign=middle;spacingTop=-1;spacingLeft=3;spacingRight=3;rotatable=0;labelPosition=right;points=[];portConstraint=eastwest;strokeColor=#000000;sketch=1;hachureGap=4;jiggle=2;curveFitting=1;fontFamily=d2coding;" vertex="1" parent="1">
          <mxGeometry x="-450" y="-848" width="160" height="8" as="geometry" />
        </mxCell>
        <mxCell id="t9LcC6FPBCo6lW4B1yM4-74" style="edgeStyle=orthogonalEdgeStyle;rounded=0;sketch=1;hachureGap=4;jiggle=2;curveFitting=1;orthogonalLoop=1;jettySize=auto;html=1;fontFamily=d2coding;fontSource=https%3A%2F%2Ffonts.googleapis.com%2Fcss%3Ffamily%3DArchitects%2BDaughter;fontSize=12;fontColor=default;labelBackgroundColor=default;endArrow=open;endFill=0;endSize=14;" edge="1" parent="1" source="t9LcC6FPBCo6lW4B1yM4-50" target="t9LcC6FPBCo6lW4B1yM4-40">
          <mxGeometry relative="1" as="geometry" />
        </mxCell>
        <mxCell id="t9LcC6FPBCo6lW4B1yM4-50" value="&lt;p style=&quot;margin:0px;margin-top:4px;text-align:center;text-decoration:underline;&quot;&gt;&lt;b&gt;&lt;font style=&quot;font-size: 16px;&quot;&gt;Scene&lt;/font&gt;&lt;/b&gt;&lt;/p&gt;&lt;hr style=&quot;border-style:solid;&quot; size=&quot;1&quot;&gt;&lt;p style=&quot;margin: 0px 0px 0px 8px; font-size: 14px;&quot;&gt;&lt;span style=&quot;background-color: initial;&quot;&gt;game&lt;/span&gt;&lt;br&gt;&lt;/p&gt;&lt;p style=&quot;margin: 0px 0px 0px 8px; font-size: 14px;&quot;&gt;info&lt;/p&gt;&lt;p style=&quot;margin: 0px 0px 0px 8px; font-size: 14px;&quot;&gt;input&lt;/p&gt;&lt;p style=&quot;margin: 0px 0px 0px 8px; font-size: 14px;&quot;&gt;&lt;br&gt;&lt;/p&gt;&lt;p style=&quot;text-wrap: nowrap; margin: 0px 0px 0px 8px; font-size: 14px;&quot;&gt;&lt;span style=&quot;background-color: initial;&quot;&gt;Enter()&lt;/span&gt;&lt;br&gt;&lt;/p&gt;&lt;p style=&quot;text-wrap: nowrap; margin: 0px 0px 0px 8px; font-size: 14px;&quot;&gt;&lt;span style=&quot;background-color: initial;&quot;&gt;Render()&lt;/span&gt;&lt;br&gt;&lt;/p&gt;&lt;p style=&quot;text-wrap: nowrap; margin: 0px 0px 0px 8px; font-size: 14px;&quot;&gt;Input()&lt;/p&gt;&lt;p style=&quot;text-wrap: nowrap; margin: 0px 0px 0px 8px; font-size: 14px;&quot;&gt;Update()&lt;br&gt;&lt;/p&gt;&lt;p style=&quot;text-wrap: nowrap; margin: 0px 0px 0px 8px; font-size: 14px;&quot;&gt;Interaction()&lt;/p&gt;&lt;p style=&quot;text-wrap: nowrap; margin: 0px 0px 0px 8px; font-size: 14px;&quot;&gt;Exit()&lt;/p&gt;" style="verticalAlign=top;align=left;overflow=fill;html=1;whiteSpace=wrap;sketch=1;hachureGap=4;jiggle=2;curveFitting=1;fontFamily=d2coding;rounded=1;fillColor=none;strokeColor=#000000;strokeWidth=2;shadow=0;" vertex="1" parent="1">
          <mxGeometry x="-83" y="-560" width="160" height="230" as="geometry" />
        </mxCell>
        <mxCell id="t9LcC6FPBCo6lW4B1yM4-51" value="" style="line;strokeWidth=0.5;fillColor=none;align=left;verticalAlign=middle;spacingTop=-1;spacingLeft=3;spacingRight=3;rotatable=0;labelPosition=right;points=[];portConstraint=eastwest;strokeColor=#000000;sketch=1;hachureGap=4;jiggle=2;curveFitting=1;fontFamily=d2coding;" vertex="1" parent="1">
          <mxGeometry x="-83" y="-470" width="160" height="8" as="geometry" />
        </mxCell>
        <mxCell id="t9LcC6FPBCo6lW4B1yM4-52" value="&lt;p style=&quot;margin:0px;margin-top:4px;text-align:center;text-decoration:underline;&quot;&gt;&lt;b&gt;&lt;font style=&quot;font-size: 16px;&quot;&gt;Stage2&lt;/font&gt;&lt;/b&gt;&lt;/p&gt;&lt;hr style=&quot;border-style:solid;&quot; size=&quot;1&quot;&gt;&lt;p style=&quot;margin: 0px 0px 0px 8px; font-size: 14px;&quot;&gt;playerPos&lt;/p&gt;&lt;p style=&quot;margin: 0px 0px 0px 8px; font-size: 14px;&quot;&gt;input&lt;/p&gt;&lt;p style=&quot;margin: 0px 0px 0px 8px; font-size: 14px;&quot;&gt;&lt;span style=&quot;text-wrap: nowrap; background-color: initial;&quot;&gt;&lt;br&gt;&lt;/span&gt;&lt;/p&gt;&lt;p style=&quot;margin: 0px 0px 0px 8px; font-size: 14px;&quot;&gt;&lt;span style=&quot;text-wrap: nowrap; background-color: initial;&quot;&gt;printInfo()&lt;/span&gt;&lt;br&gt;&lt;/p&gt;&lt;p style=&quot;text-wrap: nowrap; margin: 0px 0px 0px 8px; font-size: 14px;&quot;&gt;Enter()&lt;/p&gt;&lt;p style=&quot;text-wrap: nowrap; margin: 0px 0px 0px 8px; font-size: 14px;&quot;&gt;&lt;span style=&quot;background-color: initial;&quot;&gt;Update()&lt;/span&gt;&lt;br&gt;&lt;/p&gt;&lt;p style=&quot;text-wrap: nowrap; margin: 0px 0px 0px 8px; font-size: 14px;&quot;&gt;Render()&lt;/p&gt;&lt;p style=&quot;text-wrap: nowrap; margin: 0px 0px 0px 8px; font-size: 14px;&quot;&gt;Input()&lt;/p&gt;&lt;p style=&quot;text-wrap: nowrap; margin: 0px 0px 0px 8px; font-size: 14px;&quot;&gt;Interaction()&lt;/p&gt;&lt;p style=&quot;text-wrap: nowrap; margin: 0px 0px 0px 8px; font-size: 14px;&quot;&gt;Exit()&lt;/p&gt;" style="verticalAlign=top;align=left;overflow=fill;html=1;whiteSpace=wrap;sketch=1;hachureGap=4;jiggle=2;curveFitting=1;fontFamily=d2coding;rounded=1;fillColor=none;strokeColor=#000000;strokeWidth=2;shadow=0;" vertex="1" parent="1">
          <mxGeometry x="-206" y="-920" width="160" height="240" as="geometry" />
        </mxCell>
        <mxCell id="t9LcC6FPBCo6lW4B1yM4-53" value="" style="line;strokeWidth=0.5;fillColor=none;align=left;verticalAlign=middle;spacingTop=-1;spacingLeft=3;spacingRight=3;rotatable=0;labelPosition=right;points=[];portConstraint=eastwest;strokeColor=#000000;sketch=1;hachureGap=4;jiggle=2;curveFitting=1;fontFamily=d2coding;" vertex="1" parent="1">
          <mxGeometry x="-206" y="-848" width="160" height="8" as="geometry" />
        </mxCell>
        <mxCell id="t9LcC6FPBCo6lW4B1yM4-54" value="&lt;p style=&quot;margin:0px;margin-top:4px;text-align:center;text-decoration:underline;&quot;&gt;&lt;b&gt;&lt;font style=&quot;font-size: 16px;&quot;&gt;Stage3&lt;/font&gt;&lt;/b&gt;&lt;/p&gt;&lt;hr style=&quot;border-style:solid;&quot; size=&quot;1&quot;&gt;&lt;p style=&quot;margin: 0px 0px 0px 8px; font-size: 14px;&quot;&gt;playerPos&lt;/p&gt;&lt;p style=&quot;margin: 0px 0px 0px 8px; font-size: 14px;&quot;&gt;input&lt;/p&gt;&lt;p style=&quot;margin: 0px 0px 0px 8px; font-size: 14px;&quot;&gt;&lt;span style=&quot;text-wrap: nowrap; background-color: initial;&quot;&gt;&lt;br&gt;&lt;/span&gt;&lt;/p&gt;&lt;p style=&quot;margin: 0px 0px 0px 8px; font-size: 14px;&quot;&gt;&lt;span style=&quot;text-wrap: nowrap; background-color: initial;&quot;&gt;printInfo()&lt;/span&gt;&lt;br&gt;&lt;/p&gt;&lt;p style=&quot;text-wrap: nowrap; margin: 0px 0px 0px 8px; font-size: 14px;&quot;&gt;Enter()&lt;/p&gt;&lt;p style=&quot;text-wrap: nowrap; margin: 0px 0px 0px 8px; font-size: 14px;&quot;&gt;&lt;span style=&quot;background-color: initial;&quot;&gt;Update()&lt;/span&gt;&lt;br&gt;&lt;/p&gt;&lt;p style=&quot;text-wrap: nowrap; margin: 0px 0px 0px 8px; font-size: 14px;&quot;&gt;Render()&lt;/p&gt;&lt;p style=&quot;text-wrap: nowrap; margin: 0px 0px 0px 8px; font-size: 14px;&quot;&gt;Input()&lt;/p&gt;&lt;p style=&quot;text-wrap: nowrap; margin: 0px 0px 0px 8px; font-size: 14px;&quot;&gt;Interaction()&lt;/p&gt;&lt;p style=&quot;text-wrap: nowrap; margin: 0px 0px 0px 8px; font-size: 14px;&quot;&gt;Exit()&lt;/p&gt;" style="verticalAlign=top;align=left;overflow=fill;html=1;whiteSpace=wrap;sketch=1;hachureGap=4;jiggle=2;curveFitting=1;fontFamily=d2coding;rounded=1;fillColor=none;strokeColor=#000000;strokeWidth=2;shadow=0;" vertex="1" parent="1">
          <mxGeometry x="34" y="-920" width="160" height="240" as="geometry" />
        </mxCell>
        <mxCell id="t9LcC6FPBCo6lW4B1yM4-55" value="" style="line;strokeWidth=0.5;fillColor=none;align=left;verticalAlign=middle;spacingTop=-1;spacingLeft=3;spacingRight=3;rotatable=0;labelPosition=right;points=[];portConstraint=eastwest;strokeColor=#000000;sketch=1;hachureGap=4;jiggle=2;curveFitting=1;fontFamily=d2coding;" vertex="1" parent="1">
          <mxGeometry x="34" y="-848" width="160" height="8" as="geometry" />
        </mxCell>
        <mxCell id="t9LcC6FPBCo6lW4B1yM4-80" style="edgeStyle=orthogonalEdgeStyle;rounded=0;sketch=1;hachureGap=4;jiggle=2;curveFitting=1;orthogonalLoop=1;jettySize=auto;html=1;exitX=0.5;exitY=1;exitDx=0;exitDy=0;fontFamily=d2coding;fontSource=https%3A%2F%2Ffonts.googleapis.com%2Fcss%3Ffamily%3DArchitects%2BDaughter;fontSize=12;fontColor=default;labelBackgroundColor=default;endArrow=block;endFill=0;endSize=18;" edge="1" parent="1" source="t9LcC6FPBCo6lW4B1yM4-56">
          <mxGeometry relative="1" as="geometry">
            <mxPoint x="77" y="-540" as="targetPoint" />
            <Array as="points">
              <mxPoint x="364" y="-590" />
              <mxPoint x="167" y="-590" />
              <mxPoint x="167" y="-540" />
              <mxPoint x="77" y="-540" />
            </Array>
          </mxGeometry>
        </mxCell>
        <mxCell id="t9LcC6FPBCo6lW4B1yM4-56" value="&lt;p style=&quot;margin:0px;margin-top:4px;text-align:center;text-decoration:underline;&quot;&gt;&lt;b&gt;&lt;font style=&quot;font-size: 16px;&quot;&gt;Stage4&lt;/font&gt;&lt;/b&gt;&lt;/p&gt;&lt;hr style=&quot;border-style:solid;&quot; size=&quot;1&quot;&gt;&lt;p style=&quot;margin: 0px 0px 0px 8px; font-size: 14px;&quot;&gt;playerPos&lt;/p&gt;&lt;p style=&quot;margin: 0px 0px 0px 8px; font-size: 14px;&quot;&gt;input&lt;/p&gt;&lt;p style=&quot;margin: 0px 0px 0px 8px; font-size: 14px;&quot;&gt;&lt;span style=&quot;text-wrap: nowrap; background-color: initial;&quot;&gt;&lt;br&gt;&lt;/span&gt;&lt;/p&gt;&lt;p style=&quot;margin: 0px 0px 0px 8px; font-size: 14px;&quot;&gt;&lt;span style=&quot;text-wrap: nowrap; background-color: initial;&quot;&gt;printInfo()&lt;/span&gt;&lt;br&gt;&lt;/p&gt;&lt;p style=&quot;text-wrap: nowrap; margin: 0px 0px 0px 8px; font-size: 14px;&quot;&gt;Enter()&lt;/p&gt;&lt;p style=&quot;text-wrap: nowrap; margin: 0px 0px 0px 8px; font-size: 14px;&quot;&gt;&lt;span style=&quot;background-color: initial;&quot;&gt;Update()&lt;/span&gt;&lt;br&gt;&lt;/p&gt;&lt;p style=&quot;text-wrap: nowrap; margin: 0px 0px 0px 8px; font-size: 14px;&quot;&gt;Render()&lt;/p&gt;&lt;p style=&quot;text-wrap: nowrap; margin: 0px 0px 0px 8px; font-size: 14px;&quot;&gt;Input()&lt;/p&gt;&lt;p style=&quot;text-wrap: nowrap; margin: 0px 0px 0px 8px; font-size: 14px;&quot;&gt;Interaction()&lt;/p&gt;&lt;p style=&quot;text-wrap: nowrap; margin: 0px 0px 0px 8px; font-size: 14px;&quot;&gt;Exit()&lt;/p&gt;" style="verticalAlign=top;align=left;overflow=fill;html=1;whiteSpace=wrap;sketch=1;hachureGap=4;jiggle=2;curveFitting=1;fontFamily=d2coding;rounded=1;fillColor=none;strokeColor=#000000;strokeWidth=2;shadow=0;" vertex="1" parent="1">
          <mxGeometry x="284" y="-920" width="160" height="240" as="geometry" />
        </mxCell>
        <mxCell id="t9LcC6FPBCo6lW4B1yM4-57" value="" style="line;strokeWidth=0.5;fillColor=none;align=left;verticalAlign=middle;spacingTop=-1;spacingLeft=3;spacingRight=3;rotatable=0;labelPosition=right;points=[];portConstraint=eastwest;strokeColor=#000000;sketch=1;hachureGap=4;jiggle=2;curveFitting=1;fontFamily=d2coding;" vertex="1" parent="1">
          <mxGeometry x="284" y="-848" width="160" height="8" as="geometry" />
        </mxCell>
        <mxCell id="t9LcC6FPBCo6lW4B1yM4-72" style="edgeStyle=orthogonalEdgeStyle;rounded=0;sketch=1;hachureGap=4;jiggle=2;curveFitting=1;orthogonalLoop=1;jettySize=auto;html=1;entryX=0;entryY=0.25;entryDx=0;entryDy=0;fontFamily=d2coding;fontSource=https%3A%2F%2Ffonts.googleapis.com%2Fcss%3Ffamily%3DArchitects%2BDaughter;fontSize=12;fontColor=default;labelBackgroundColor=default;startArrow=none;startFill=0;strokeWidth=1;strokeColor=default;targetPerimeterSpacing=0;endArrow=open;endFill=0;endSize=14;" edge="1" parent="1" source="t9LcC6FPBCo6lW4B1yM4-58" target="t9LcC6FPBCo6lW4B1yM4-40">
          <mxGeometry relative="1" as="geometry" />
        </mxCell>
        <mxCell id="t9LcC6FPBCo6lW4B1yM4-58" value="&lt;p style=&quot;margin:0px;margin-top:4px;text-align:center;text-decoration:underline;&quot;&gt;&lt;b&gt;&lt;font style=&quot;font-size: 16px;&quot;&gt;Map&lt;/font&gt;&lt;/b&gt;&lt;/p&gt;&lt;hr style=&quot;border-style:solid;&quot; size=&quot;1&quot;&gt;&lt;p style=&quot;margin: 0px 0px 0px 8px; font-size: 14px;&quot;&gt;&lt;br&gt;&lt;/p&gt;&lt;p style=&quot;margin: 0px 0px 0px 8px; font-size: 14px;&quot;&gt;&lt;span style=&quot;background-color: initial;&quot;&gt;map&lt;/span&gt;&lt;/p&gt;&lt;p style=&quot;margin: 0px 0px 0px 8px; font-size: 14px;&quot;&gt;&lt;br&gt;&lt;/p&gt;&lt;p style=&quot;margin: 0px 0px 0px 8px; font-size: 14px;&quot;&gt;&lt;br&gt;&lt;/p&gt;&lt;p style=&quot;text-wrap: nowrap; margin: 0px 0px 0px 8px; font-size: 14px;&quot;&gt;&lt;span style=&quot;background-color: initial;&quot;&gt;PrintMap()&lt;/span&gt;&lt;/p&gt;" style="verticalAlign=top;align=left;overflow=fill;html=1;whiteSpace=wrap;sketch=1;hachureGap=4;jiggle=2;curveFitting=1;fontFamily=d2coding;rounded=1;fillColor=none;strokeColor=#000000;strokeWidth=2;shadow=0;" vertex="1" parent="1">
          <mxGeometry x="-383" y="-180" width="160" height="165" as="geometry" />
        </mxCell>
        <mxCell id="t9LcC6FPBCo6lW4B1yM4-59" value="" style="line;strokeWidth=0.5;fillColor=none;align=left;verticalAlign=middle;spacingTop=-1;spacingLeft=3;spacingRight=3;rotatable=0;labelPosition=right;points=[];portConstraint=eastwest;strokeColor=#000000;sketch=1;hachureGap=4;jiggle=2;curveFitting=1;fontFamily=d2coding;" vertex="1" parent="1">
          <mxGeometry x="-383" y="-101.5" width="160" height="8" as="geometry" />
        </mxCell>
        <mxCell id="t9LcC6FPBCo6lW4B1yM4-60" value="&lt;p style=&quot;margin:0px;margin-top:4px;text-align:center;text-decoration:underline;&quot;&gt;&lt;b&gt;&lt;font style=&quot;font-size: 16px;&quot;&gt;Player&lt;/font&gt;&lt;/b&gt;&lt;/p&gt;&lt;hr style=&quot;border-style:solid;&quot; size=&quot;1&quot;&gt;&lt;p style=&quot;margin: 0px 0px 0px 8px; font-size: 14px;&quot;&gt;&lt;br&gt;&lt;/p&gt;&lt;p style=&quot;margin: 0px 0px 0px 8px; font-size: 14px;&quot;&gt;random&lt;/p&gt;&lt;p style=&quot;margin: 0px 0px 0px 8px; font-size: 14px;&quot;&gt;color&lt;/p&gt;&lt;p style=&quot;margin: 0px 0px 0px 8px; font-size: 14px;&quot;&gt;playerPos&lt;/p&gt;&lt;p style=&quot;margin: 0px 0px 0px 8px; font-size: 14px;&quot;&gt;symbol&lt;/p&gt;&lt;p style=&quot;margin: 0px 0px 0px 8px; font-size: 14px;&quot;&gt;removeWhenInteract&lt;/p&gt;&lt;p style=&quot;margin: 0px 0px 0px 8px; font-size: 14px;&quot;&gt;shapeNumber&lt;/p&gt;&lt;p style=&quot;margin: 0px 0px 0px 8px; font-size: 14px;&quot;&gt;&lt;br&gt;&lt;/p&gt;&lt;p style=&quot;margin: 0px 0px 0px 8px; font-size: 14px;&quot;&gt;&lt;br&gt;&lt;/p&gt;&lt;p style=&quot;text-wrap: nowrap; margin: 0px 0px 0px 8px; font-size: 14px;&quot;&gt;PrintPlayer()&lt;/p&gt;" style="verticalAlign=top;align=left;overflow=fill;html=1;whiteSpace=wrap;sketch=1;hachureGap=4;jiggle=2;curveFitting=1;fontFamily=d2coding;rounded=1;fillColor=none;strokeColor=#000000;strokeWidth=2;shadow=0;" vertex="1" parent="1">
          <mxGeometry x="217" y="-290" width="160" height="230" as="geometry" />
        </mxCell>
        <mxCell id="t9LcC6FPBCo6lW4B1yM4-61" value="" style="line;strokeWidth=0.5;fillColor=none;align=left;verticalAlign=middle;spacingTop=-1;spacingLeft=3;spacingRight=3;rotatable=0;labelPosition=right;points=[];portConstraint=eastwest;strokeColor=inherit;sketch=1;hachureGap=4;jiggle=2;curveFitting=1;fontFamily=d2coding;" vertex="1" parent="1">
          <mxGeometry x="217" y="-130" width="160" height="8" as="geometry" />
        </mxCell>
        <mxCell id="t9LcC6FPBCo6lW4B1yM4-93" style="edgeStyle=orthogonalEdgeStyle;rounded=0;sketch=1;hachureGap=4;jiggle=2;curveFitting=1;orthogonalLoop=1;jettySize=auto;html=1;fontFamily=d2coding;fontSource=https%3A%2F%2Ffonts.googleapis.com%2Fcss%3Ffamily%3DArchitects%2BDaughter;fontSize=12;fontColor=default;labelBackgroundColor=default;entryX=-0.025;entryY=0.551;entryDx=0;entryDy=0;entryPerimeter=0;endSize=14;endArrow=open;endFill=0;" edge="1" parent="1" source="t9LcC6FPBCo6lW4B1yM4-62" target="t9LcC6FPBCo6lW4B1yM4-64">
          <mxGeometry relative="1" as="geometry">
            <mxPoint x="-580" y="580" as="targetPoint" />
            <Array as="points">
              <mxPoint x="-580" y="582" />
            </Array>
          </mxGeometry>
        </mxCell>
        <mxCell id="t9LcC6FPBCo6lW4B1yM4-62" value="&lt;p style=&quot;margin:0px;margin-top:4px;text-align:center;text-decoration:underline;&quot;&gt;&lt;b&gt;&lt;font style=&quot;font-size: 16px;&quot;&gt;Obstacle&lt;/font&gt;&lt;/b&gt;&lt;/p&gt;&lt;hr style=&quot;border-style:solid;&quot; size=&quot;1&quot;&gt;&lt;p style=&quot;margin: 0px 0px 0px 8px; font-size: 14px;&quot;&gt;&lt;span style=&quot;text-wrap: nowrap;&quot;&gt;game&lt;/span&gt;&lt;/p&gt;&lt;p style=&quot;margin: 0px 0px 0px 8px; font-size: 14px;&quot;&gt;&lt;span style=&quot;text-wrap: nowrap; background-color: initial;&quot;&gt;scene&lt;/span&gt;&lt;/p&gt;&lt;p style=&quot;margin: 0px 0px 0px 8px; font-size: 14px;&quot;&gt;&lt;span style=&quot;background-color: initial;&quot;&gt;obstacle&lt;/span&gt;&lt;br&gt;&lt;/p&gt;&lt;p style=&quot;margin: 0px 0px 0px 8px; font-size: 14px;&quot;&gt;&lt;span style=&quot;background-color: initial;&quot;&gt;color&lt;/span&gt;&lt;br&gt;&lt;/p&gt;&lt;p style=&quot;margin: 0px 0px 0px 8px; font-size: 14px;&quot;&gt;obsPos&lt;/p&gt;&lt;p style=&quot;margin: 0px 0px 0px 8px; font-size: 14px;&quot;&gt;symbol&lt;/p&gt;&lt;p style=&quot;margin: 0px 0px 0px 8px; font-size: 14px;&quot;&gt;removeWhenInteract&lt;/p&gt;&lt;p style=&quot;margin: 0px 0px 0px 8px; font-size: 14px;&quot;&gt;name&lt;/p&gt;&lt;p style=&quot;margin: 0px 0px 0px 8px; font-size: 14px;&quot;&gt;&lt;br&gt;&lt;/p&gt;&lt;p style=&quot;text-wrap: nowrap; margin: 0px 0px 0px 8px; font-size: 14px;&quot;&gt;PrintObstacle()&lt;/p&gt;&lt;p style=&quot;text-wrap: nowrap; margin: 0px 0px 0px 8px; font-size: 14px;&quot;&gt;Interaction()&lt;/p&gt;&lt;p style=&quot;text-wrap: nowrap; margin: 0px 0px 0px 8px; font-size: 14px;&quot;&gt;obsMovement()&lt;/p&gt;" style="verticalAlign=top;align=left;overflow=fill;html=1;whiteSpace=wrap;sketch=1;hachureGap=4;jiggle=2;curveFitting=1;fontFamily=d2coding;rounded=1;fillColor=none;strokeColor=#000000;strokeWidth=2;shadow=0;" vertex="1" parent="1">
          <mxGeometry x="-660" y="250" width="160" height="270" as="geometry" />
        </mxCell>
        <mxCell id="t9LcC6FPBCo6lW4B1yM4-63" value="" style="line;strokeWidth=0.5;fillColor=none;align=left;verticalAlign=middle;spacingTop=-1;spacingLeft=3;spacingRight=3;rotatable=0;labelPosition=right;points=[];portConstraint=eastwest;strokeColor=inherit;sketch=1;hachureGap=4;jiggle=2;curveFitting=1;fontFamily=d2coding;" vertex="1" parent="1">
          <mxGeometry x="-660" y="425" width="160" height="8" as="geometry" />
        </mxCell>
        <mxCell id="t9LcC6FPBCo6lW4B1yM4-94" style="edgeStyle=orthogonalEdgeStyle;rounded=0;sketch=1;hachureGap=4;jiggle=2;curveFitting=1;orthogonalLoop=1;jettySize=auto;html=1;fontFamily=d2coding;fontSource=https%3A%2F%2Ffonts.googleapis.com%2Fcss%3Ffamily%3DArchitects%2BDaughter;fontSize=12;fontColor=default;labelBackgroundColor=default;endSize=14;endArrow=open;endFill=0;" edge="1" parent="1" source="t9LcC6FPBCo6lW4B1yM4-64" target="t9LcC6FPBCo6lW4B1yM4-68">
          <mxGeometry relative="1" as="geometry" />
        </mxCell>
        <mxCell id="t9LcC6FPBCo6lW4B1yM4-64" value="&lt;p style=&quot;margin:0px;margin-top:4px;text-align:center;text-decoration:underline;&quot;&gt;&lt;b&gt;&lt;font style=&quot;font-size: 16px;&quot;&gt;ObsFactory&lt;/font&gt;&lt;/b&gt;&lt;/p&gt;&lt;hr style=&quot;border-style:solid;&quot; size=&quot;1&quot;&gt;&lt;p style=&quot;margin: 0px 0px 0px 8px; font-size: 14px;&quot;&gt;Obstacle&lt;/p&gt;&lt;p style=&quot;margin: 0px 0px 0px 8px; font-size: 14px;&quot;&gt;obsPos&lt;/p&gt;&lt;p style=&quot;margin: 0px 0px 0px 8px; font-size: 14px;&quot;&gt;&lt;span style=&quot;text-wrap: nowrap; background-color: initial;&quot;&gt;&lt;br&gt;&lt;/span&gt;&lt;/p&gt;&lt;p style=&quot;margin: 0px 0px 0px 8px; font-size: 14px;&quot;&gt;&lt;br&gt;&lt;/p&gt;" style="verticalAlign=top;align=left;overflow=fill;html=1;whiteSpace=wrap;sketch=1;hachureGap=4;jiggle=2;curveFitting=1;fontFamily=d2coding;rounded=1;fillColor=none;strokeColor=#000000;strokeWidth=2;shadow=0;" vertex="1" parent="1">
          <mxGeometry x="-390" y="505" width="160" height="140" as="geometry" />
        </mxCell>
        <mxCell id="t9LcC6FPBCo6lW4B1yM4-65" value="" style="line;strokeWidth=0.5;fillColor=none;align=left;verticalAlign=middle;spacingTop=-1;spacingLeft=3;spacingRight=3;rotatable=0;labelPosition=right;points=[];portConstraint=eastwest;strokeColor=#000000;sketch=1;hachureGap=4;jiggle=2;curveFitting=1;fontFamily=d2coding;" vertex="1" parent="1">
          <mxGeometry x="-390" y="577" width="160" height="8" as="geometry" />
        </mxCell>
        <mxCell id="t9LcC6FPBCo6lW4B1yM4-88" style="edgeStyle=orthogonalEdgeStyle;rounded=0;sketch=1;hachureGap=4;jiggle=2;curveFitting=1;orthogonalLoop=1;jettySize=auto;html=1;entryX=0;entryY=0.5;entryDx=0;entryDy=0;fontFamily=d2coding;fontSource=https%3A%2F%2Ffonts.googleapis.com%2Fcss%3Ffamily%3DArchitects%2BDaughter;fontSize=12;fontColor=default;labelBackgroundColor=default;endSize=14;endArrow=open;endFill=0;dashed=1;" edge="1" parent="1" source="t9LcC6FPBCo6lW4B1yM4-66" target="t9LcC6FPBCo6lW4B1yM4-85">
          <mxGeometry relative="1" as="geometry" />
        </mxCell>
        <mxCell id="t9LcC6FPBCo6lW4B1yM4-66" value="&lt;p style=&quot;margin:0px;margin-top:4px;text-align:center;text-decoration:underline;&quot;&gt;&lt;b&gt;&lt;font style=&quot;font-size: 16px;&quot;&gt;Shape&lt;/font&gt;&lt;/b&gt;&lt;/p&gt;&lt;hr style=&quot;border-style:solid;&quot; size=&quot;1&quot;&gt;&lt;p style=&quot;margin: 0px 0px 0px 8px; font-size: 14px;&quot;&gt;&lt;span style=&quot;background-color: initial;&quot;&gt;pos&lt;/span&gt;&lt;br&gt;&lt;/p&gt;&lt;p style=&quot;margin: 0px 0px 0px 8px; font-size: 14px;&quot;&gt;color&lt;/p&gt;&lt;p style=&quot;margin: 0px 0px 0px 8px; font-size: 14px;&quot;&gt;symbol&lt;/p&gt;&lt;p style=&quot;margin: 0px 0px 0px 8px; font-size: 14px;&quot;&gt;removeWhenInteract&lt;/p&gt;&lt;p style=&quot;margin: 0px 0px 0px 8px; font-size: 14px;&quot;&gt;number&lt;/p&gt;&lt;p style=&quot;margin: 0px 0px 0px 8px; font-size: 14px;&quot;&gt;shape&lt;/p&gt;&lt;p style=&quot;margin: 0px 0px 0px 8px; font-size: 14px;&quot;&gt;randomSpawn&lt;/p&gt;&lt;p style=&quot;margin: 0px 0px 0px 8px; font-size: 14px;&quot;&gt;&lt;br&gt;&lt;/p&gt;&lt;p style=&quot;text-wrap: nowrap; margin: 0px 0px 0px 8px; font-size: 14px;&quot;&gt;PrintShape()&lt;/p&gt;" style="verticalAlign=top;align=left;overflow=fill;html=1;whiteSpace=wrap;sketch=1;hachureGap=4;jiggle=2;curveFitting=1;fontFamily=d2coding;rounded=1;fillColor=none;strokeColor=#000000;strokeWidth=2;shadow=0;glass=0;" vertex="1" parent="1">
          <mxGeometry x="217" y="-30" width="160" height="215" as="geometry" />
        </mxCell>
        <mxCell id="t9LcC6FPBCo6lW4B1yM4-67" value="" style="line;strokeWidth=0.5;fillColor=none;align=left;verticalAlign=middle;spacingTop=-1;spacingLeft=3;spacingRight=3;rotatable=0;labelPosition=right;points=[];portConstraint=eastwest;strokeColor=inherit;sketch=1;hachureGap=4;jiggle=2;curveFitting=1;fontFamily=d2coding;" vertex="1" parent="1">
          <mxGeometry x="217" y="125" width="160" height="8" as="geometry" />
        </mxCell>
        <mxCell id="t9LcC6FPBCo6lW4B1yM4-95" style="edgeStyle=orthogonalEdgeStyle;rounded=0;sketch=1;hachureGap=4;jiggle=2;curveFitting=1;orthogonalLoop=1;jettySize=auto;html=1;entryX=0.5;entryY=1;entryDx=0;entryDy=0;fontFamily=d2coding;fontSource=https%3A%2F%2Ffonts.googleapis.com%2Fcss%3Ffamily%3DArchitects%2BDaughter;fontSize=12;fontColor=default;labelBackgroundColor=default;endArrow=open;endFill=0;endSize=14;" edge="1" parent="1" source="t9LcC6FPBCo6lW4B1yM4-68" target="t9LcC6FPBCo6lW4B1yM4-40">
          <mxGeometry relative="1" as="geometry" />
        </mxCell>
        <mxCell id="t9LcC6FPBCo6lW4B1yM4-68" value="&lt;p style=&quot;margin:0px;margin-top:4px;text-align:center;text-decoration:underline;&quot;&gt;&lt;b&gt;&lt;font style=&quot;font-size: 16px;&quot;&gt;Printer&lt;/font&gt;&lt;/b&gt;&lt;/p&gt;&lt;br&gt;&lt;p style=&quot;margin: 0px 0px 0px 8px; font-size: 14px;&quot;&gt;Shape&lt;/p&gt;&lt;p style=&quot;margin: 0px 0px 0px 8px; font-size: 14px;&quot;&gt;obstacleH&lt;/p&gt;&lt;p style=&quot;margin: 0px 0px 0px 8px; font-size: 14px;&quot;&gt;ShapeBuilder&lt;/p&gt;&lt;p style=&quot;margin: 0px 0px 0px 8px; font-size: 14px;&quot;&gt;randomSpawn&lt;/p&gt;&lt;p style=&quot;margin: 0px 0px 0px 8px; font-size: 14px;&quot;&gt;&lt;br&gt;&lt;/p&gt;&lt;p style=&quot;text-wrap: nowrap; margin: 0px 0px 0px 8px; font-size: 14px;&quot;&gt;PrintPlayer()&lt;/p&gt;&lt;p style=&quot;text-wrap: nowrap; margin: 0px 0px 0px 8px; font-size: 14px;&quot;&gt;PrintObstacleV()&lt;/p&gt;&lt;p style=&quot;text-wrap: nowrap; margin: 0px 0px 0px 8px; font-size: 14px;&quot;&gt;PrintObstacleH()&lt;/p&gt;&lt;p style=&quot;text-wrap: nowrap; margin: 0px 0px 0px 8px; font-size: 14px;&quot;&gt;CreateShape()&lt;/p&gt;&lt;p style=&quot;text-wrap: nowrap; margin: 0px 0px 0px 8px; font-size: 14px;&quot;&gt;&lt;br&gt;&lt;/p&gt;" style="verticalAlign=top;align=left;overflow=fill;html=1;whiteSpace=wrap;sketch=1;hachureGap=4;jiggle=2;curveFitting=1;fontFamily=d2coding;rounded=1;fillColor=none;strokeColor=#000000;strokeWidth=2;shadow=0;" vertex="1" parent="1">
          <mxGeometry x="-83" y="470" width="160" height="210" as="geometry" />
        </mxCell>
        <mxCell id="t9LcC6FPBCo6lW4B1yM4-69" value="" style="line;strokeWidth=0.5;fillColor=none;align=left;verticalAlign=middle;spacingTop=-1;spacingLeft=3;spacingRight=3;rotatable=0;labelPosition=right;points=[];portConstraint=eastwest;strokeColor=inherit;sketch=1;hachureGap=4;jiggle=2;curveFitting=1;fontFamily=d2coding;" vertex="1" parent="1">
          <mxGeometry x="-83" y="581" width="160" height="8" as="geometry" />
        </mxCell>
        <mxCell id="t9LcC6FPBCo6lW4B1yM4-70" value="&lt;p style=&quot;margin:0px;margin-top:4px;text-align:center;text-decoration:underline;&quot;&gt;&lt;b&gt;&lt;font style=&quot;font-size: 16px;&quot;&gt;Movement&lt;/font&gt;&lt;/b&gt;&lt;/p&gt;&lt;hr style=&quot;border-style:solid;&quot; size=&quot;1&quot;&gt;&lt;p style=&quot;margin: 0px 0px 0px 8px; font-size: 14px;&quot;&gt;game&lt;/p&gt;&lt;p style=&quot;margin: 0px 0px 0px 8px; font-size: 14px;&quot;&gt;&lt;br&gt;&lt;/p&gt;&lt;p style=&quot;margin: 0px 0px 0px 8px; font-size: 14px;&quot;&gt;&lt;span style=&quot;text-wrap: nowrap; background-color: initial;&quot;&gt;Moves&lt;/span&gt;&lt;/p&gt;&lt;p style=&quot;margin: 0px 0px 0px 8px; font-size: 14px;&quot;&gt;&lt;br&gt;&lt;/p&gt;" style="verticalAlign=top;align=left;overflow=fill;html=1;whiteSpace=wrap;sketch=1;hachureGap=4;jiggle=2;curveFitting=1;fontFamily=d2coding;rounded=1;fillColor=none;strokeColor=#000000;strokeWidth=2;shadow=0;" vertex="1" parent="1">
          <mxGeometry x="-383" y="120" width="160" height="140" as="geometry" />
        </mxCell>
        <mxCell id="t9LcC6FPBCo6lW4B1yM4-71" value="" style="line;strokeWidth=0.5;fillColor=none;align=left;verticalAlign=middle;spacingTop=-1;spacingLeft=3;spacingRight=3;rotatable=0;labelPosition=right;points=[];portConstraint=eastwest;strokeColor=#000000;sketch=1;hachureGap=4;jiggle=2;curveFitting=1;fontFamily=d2coding;" vertex="1" parent="1">
          <mxGeometry x="-383" y="179" width="160" height="8" as="geometry" />
        </mxCell>
        <mxCell id="t9LcC6FPBCo6lW4B1yM4-76" style="edgeStyle=orthogonalEdgeStyle;rounded=0;sketch=1;hachureGap=4;jiggle=2;curveFitting=1;orthogonalLoop=1;jettySize=auto;html=1;exitX=1;exitY=0.5;exitDx=0;exitDy=0;entryX=-0.009;entryY=0.465;entryDx=0;entryDy=0;entryPerimeter=0;fontFamily=d2coding;fontSource=https%3A%2F%2Ffonts.googleapis.com%2Fcss%3Ffamily%3DArchitects%2BDaughter;fontSize=12;fontColor=default;labelBackgroundColor=default;endArrow=block;endFill=0;endSize=18;" edge="1" parent="1" source="t9LcC6FPBCo6lW4B1yM4-47" target="t9LcC6FPBCo6lW4B1yM4-50">
          <mxGeometry relative="1" as="geometry" />
        </mxCell>
        <mxCell id="t9LcC6FPBCo6lW4B1yM4-78" style="edgeStyle=orthogonalEdgeStyle;rounded=0;sketch=1;hachureGap=4;jiggle=2;curveFitting=1;orthogonalLoop=1;jettySize=auto;html=1;exitX=0.5;exitY=1;exitDx=0;exitDy=0;entryX=0.381;entryY=-0.005;entryDx=0;entryDy=0;entryPerimeter=0;fontFamily=d2coding;fontSource=https%3A%2F%2Ffonts.googleapis.com%2Fcss%3Ffamily%3DArchitects%2BDaughter;fontSize=12;fontColor=default;labelBackgroundColor=default;endArrow=block;endFill=0;endSize=18;" edge="1" parent="1" source="t9LcC6FPBCo6lW4B1yM4-52" target="t9LcC6FPBCo6lW4B1yM4-50">
          <mxGeometry relative="1" as="geometry" />
        </mxCell>
        <mxCell id="t9LcC6FPBCo6lW4B1yM4-79" style="edgeStyle=orthogonalEdgeStyle;rounded=0;sketch=1;hachureGap=4;jiggle=2;curveFitting=1;orthogonalLoop=1;jettySize=auto;html=1;exitX=0.5;exitY=1;exitDx=0;exitDy=0;entryX=0.638;entryY=0.005;entryDx=0;entryDy=0;entryPerimeter=0;fontFamily=d2coding;fontSource=https%3A%2F%2Ffonts.googleapis.com%2Fcss%3Ffamily%3DArchitects%2BDaughter;fontSize=12;fontColor=default;labelBackgroundColor=default;endArrow=block;endFill=0;endSize=18;" edge="1" parent="1" source="t9LcC6FPBCo6lW4B1yM4-54" target="t9LcC6FPBCo6lW4B1yM4-50">
          <mxGeometry relative="1" as="geometry" />
        </mxCell>
        <mxCell id="t9LcC6FPBCo6lW4B1yM4-82" style="edgeStyle=orthogonalEdgeStyle;rounded=0;sketch=1;hachureGap=4;jiggle=2;curveFitting=1;orthogonalLoop=1;jettySize=auto;html=1;exitX=1;exitY=0.5;exitDx=0;exitDy=0;entryX=0.008;entryY=0.764;entryDx=0;entryDy=0;entryPerimeter=0;fontFamily=d2coding;fontSource=https%3A%2F%2Ffonts.googleapis.com%2Fcss%3Ffamily%3DArchitects%2BDaughter;fontSize=12;fontColor=default;labelBackgroundColor=default;endArrow=open;endFill=0;endSize=14;" edge="1" parent="1" source="t9LcC6FPBCo6lW4B1yM4-70" target="t9LcC6FPBCo6lW4B1yM4-40">
          <mxGeometry relative="1" as="geometry" />
        </mxCell>
        <mxCell id="t9LcC6FPBCo6lW4B1yM4-83" style="edgeStyle=orthogonalEdgeStyle;rounded=0;sketch=1;hachureGap=4;jiggle=2;curveFitting=1;orthogonalLoop=1;jettySize=auto;html=1;entryX=1.003;entryY=0.17;entryDx=0;entryDy=0;entryPerimeter=0;fontFamily=d2coding;fontSource=https%3A%2F%2Ffonts.googleapis.com%2Fcss%3Ffamily%3DArchitects%2BDaughter;fontSize=12;fontColor=default;labelBackgroundColor=default;endSize=14;endArrow=open;endFill=0;" edge="1" parent="1" source="t9LcC6FPBCo6lW4B1yM4-60" target="t9LcC6FPBCo6lW4B1yM4-40">
          <mxGeometry relative="1" as="geometry" />
        </mxCell>
        <mxCell id="t9LcC6FPBCo6lW4B1yM4-84" style="edgeStyle=orthogonalEdgeStyle;rounded=0;sketch=1;hachureGap=4;jiggle=2;curveFitting=1;orthogonalLoop=1;jettySize=auto;html=1;exitX=0;exitY=0.5;exitDx=0;exitDy=0;entryX=1.004;entryY=0.545;entryDx=0;entryDy=0;entryPerimeter=0;fontFamily=d2coding;fontSource=https%3A%2F%2Ffonts.googleapis.com%2Fcss%3Ffamily%3DArchitects%2BDaughter;fontSize=12;fontColor=default;labelBackgroundColor=default;endArrow=open;endFill=0;endSize=14;" edge="1" parent="1" source="t9LcC6FPBCo6lW4B1yM4-66" target="t9LcC6FPBCo6lW4B1yM4-40">
          <mxGeometry relative="1" as="geometry" />
        </mxCell>
        <mxCell id="t9LcC6FPBCo6lW4B1yM4-92" style="edgeStyle=orthogonalEdgeStyle;rounded=0;sketch=1;hachureGap=4;jiggle=2;curveFitting=1;orthogonalLoop=1;jettySize=auto;html=1;fontFamily=d2coding;fontSource=https%3A%2F%2Ffonts.googleapis.com%2Fcss%3Ffamily%3DArchitects%2BDaughter;fontSize=12;fontColor=default;labelBackgroundColor=default;endSize=14;endArrow=open;endFill=0;" edge="1" parent="1" source="t9LcC6FPBCo6lW4B1yM4-85" target="t9LcC6FPBCo6lW4B1yM4-68">
          <mxGeometry relative="1" as="geometry">
            <mxPoint x="80" y="500" as="targetPoint" />
            <Array as="points">
              <mxPoint x="591" y="580" />
            </Array>
          </mxGeometry>
        </mxCell>
        <mxCell id="t9LcC6FPBCo6lW4B1yM4-85" value="&lt;p style=&quot;margin:0px;margin-top:4px;text-align:center;text-decoration:underline;&quot;&gt;&lt;b&gt;&lt;font style=&quot;font-size: 16px;&quot;&gt;ShapeBuilder&lt;/font&gt;&lt;/b&gt;&lt;/p&gt;&lt;hr style=&quot;border-style:solid;&quot; size=&quot;1&quot;&gt;&lt;p style=&quot;margin: 0px 0px 0px 8px; font-size: 14px;&quot;&gt;&lt;span style=&quot;background-color: initial;&quot;&gt;pos&lt;/span&gt;&lt;br&gt;&lt;/p&gt;&lt;p style=&quot;margin: 0px 0px 0px 8px; font-size: 14px;&quot;&gt;color&lt;/p&gt;&lt;p style=&quot;margin: 0px 0px 0px 8px; font-size: 14px;&quot;&gt;symbol&lt;/p&gt;&lt;p style=&quot;margin: 0px 0px 0px 8px; font-size: 14px;&quot;&gt;removeWhenInteract&lt;/p&gt;&lt;p style=&quot;margin: 0px 0px 0px 8px; font-size: 14px;&quot;&gt;number&lt;/p&gt;&lt;p style=&quot;margin: 0px 0px 0px 8px; font-size: 14px;&quot;&gt;shape&lt;/p&gt;&lt;p style=&quot;margin: 0px 0px 0px 8px; font-size: 14px;&quot;&gt;randomSpawn&lt;/p&gt;&lt;p style=&quot;margin: 0px 0px 0px 8px; font-size: 14px;&quot;&gt;&lt;br&gt;&lt;/p&gt;&lt;p style=&quot;text-wrap: nowrap; margin: 0px 0px 0px 8px; font-size: 14px;&quot;&gt;SetNumber()&lt;/p&gt;&lt;p style=&quot;text-wrap: nowrap; margin: 0px 0px 0px 8px; font-size: 14px;&quot;&gt;SetColor()&lt;/p&gt;&lt;p style=&quot;text-wrap: nowrap; margin: 0px 0px 0px 8px; font-size: 14px;&quot;&gt;SetSymbol()&lt;/p&gt;&lt;p style=&quot;text-wrap: nowrap; margin: 0px 0px 0px 8px; font-size: 14px;&quot;&gt;Build()&lt;/p&gt;" style="verticalAlign=top;align=left;overflow=fill;html=1;whiteSpace=wrap;sketch=1;hachureGap=4;jiggle=2;curveFitting=1;fontFamily=d2coding;rounded=1;fillColor=none;strokeColor=#000000;strokeWidth=2;shadow=0;glass=0;" vertex="1" parent="1">
          <mxGeometry x="511" y="-50" width="160" height="255" as="geometry" />
        </mxCell>
        <mxCell id="t9LcC6FPBCo6lW4B1yM4-86" value="" style="line;strokeWidth=0.5;fillColor=none;align=left;verticalAlign=middle;spacingTop=-1;spacingLeft=3;spacingRight=3;rotatable=0;labelPosition=right;points=[];portConstraint=eastwest;strokeColor=inherit;sketch=1;hachureGap=4;jiggle=2;curveFitting=1;fontFamily=d2coding;" vertex="1" parent="1">
          <mxGeometry x="511" y="105" width="160" height="8" as="geometry" />
        </mxCell>
      </root>
    </mxGraphModel>
  </diagram>
</mxfile>
